<?xml version="1.0" standalone="no"?><svg xmlns="http://www.w3.org/2000/svg" viewBox="0 0 1440 320"><path fill="#171717" fill-opacity="1" d="M0,128L40,144C80,160,160,192,240,181.3C320,171,400,117,480,101.3C560,85,640,107,720,138.7C800,171,880,213,960,208C1040,203,1120,149,1200,133.3C1280,117,1360,139,1400,149.3L1440,160L1440,320L1400,320C1360,320,1280,320,1200,320C1120,320,1040,320,960,320C880,320,800,320,720,320C640,320,560,320,480,320C400,320,320,320,240,320C160,320,80,320,40,320L0,320Z"></path></svg>